<svg xmlns="http://www.w3.org/2000/svg" version="1.1" xmlns:xlink="http://www.w3.org/1999/xlink" xmlns:svgjs="http://svgjs.dev/svgjs" width="2000" height="1252" viewBox="0 0 2000 1252"><g transform="matrix(1,0,0,1,-1.2121212121212466,-2.01935483870966)"><svg viewBox="0 0 396 248" data-background-color="#ffffff" preserveAspectRatio="xMidYMid meet" height="1252" width="2000" xmlns="http://www.w3.org/2000/svg" xmlns:xlink="http://www.w3.org/1999/xlink"><g id="tight-bounds" transform="matrix(1,0,0,1,0.2400000000000091,0.4000000000000057)"><svg viewBox="0 0 395.52 247.2" height="247.2" width="395.52"><g><svg></svg></g><g><svg viewBox="0 0 395.52 247.2" height="247.2" width="395.52"><mask id="d982b744-b1dd-4157-9d75-cc26c21eb4dd"><rect width="395.52" height="247.2" fill="white"></rect><g transform="matrix(1,0,0,1,121.92703146125108,37.08)" id="clone"><svg viewBox="0 0 151.66593707749783 173.04" height="173.04" width="151.66593707749783"><g><svg viewBox="0 0 151.66593707749783 173.04" height="173.04" width="151.66593707749783"><g><svg viewBox="0 0 191.72399399999998 218.74338141469337" height="173.04" width="151.66593707749783"><g><svg viewBox="0 0 191.72399399999998 218.74338141469337" height="218.74338141469337" width="191.72399399999998"><g id="SvgjsG5474"><svg viewBox="0 0 191.72399399999998 218.74338141469337" height="218.74338141469337" width="191.72399399999998" id="SvgjsSvg5473"><g><svg viewBox="0 0 191.72399399999998 171.9706128" height="171.9706128" width="191.72399399999998"><g transform="matrix(1,0,0,1,0,0)"><svg width="191.72399399999998" viewBox="-0.5 -40.5 50.5 45.4" height="171.9706128" data-palette-color="#bb86fc"><path d="M45.85-36L45.85-1.5Q45.85-1.25 46.23-1.1 46.6-0.95 47-0.95L47-0.95 47 0 38.25 0 38.25-0.95Q38.65-0.95 39.03-1.1 39.4-1.25 39.4-1.5L39.4-1.5 39.4-30.15 24.75 1.9 10.15-30.25 10.15-1.5Q10.15-1.25 10.53-1.1 10.9-0.95 11.3-0.95L11.3-0.95 11.3 0 2.5 0 2.5-0.95Q2.9-0.95 3.28-1.1 3.65-1.25 3.65-1.5L3.65-1.5 3.65-36Q3.65-36.25 3.28-36.4 2.9-36.55 2.55-36.55L2.55-36.55 2.55-37.5 15.45-37.5 15.45-36.55Q14.85-36.55 14.68-36.27 14.5-36 14.65-35.65L14.65-35.65 24.8-12.05 35.1-35.65Q35.2-35.95 34.8-36.25 34.4-36.55 33.8-36.55L33.8-36.55 33.8-37.5 46.95-37.5 46.95-36.55Q46.6-36.55 46.23-36.4 45.85-36.25 45.85-36L45.85-36Z" opacity="1" transform="matrix(1,0,0,1,0,0)" fill="black" class="wordmark-text-0" id="SvgjsPath5472" stroke-width="5" stroke="black" stroke-linejoin="round"></path></svg></g></svg></g><g transform="matrix(1,0,0,1,2.5,194.2392795627872)"><svg viewBox="0 0 186.72399399999998 24.504101851906157" height="24.504101851906157" width="186.72399399999998"><g transform="matrix(1,0,0,1,0,0)"><svg width="186.72399399999998" viewBox="-1.1 -40.05 410.16 54.699999999999996" height="24.504101851906157" data-palette-color="#bb86fc"><path d="M11.2 0.65L11.2 0.65Q7.95 0.65 5.88-0.18 3.8-1 2.85-2.38 1.9-3.75 1.9-5.4L1.9-5.4Q1.9-6.25 2.2-6.95 2.5-7.65 3.23-8.03 3.95-8.4 5.2-8.15L5.2-8.15Q5.05-7.65 5.03-7.18 5-6.7 5.1-6.05L5.1-6.05Q5.2-3.85 6.9-2.55 8.6-1.25 11.55-1.25L11.55-1.25Q14.3-1.25 16.05-2.25 17.8-3.25 17.8-5.2L17.8-5.2Q17.8-6.8 16.78-7.78 15.75-8.75 14.15-9.5 12.55-10.25 10.8-11.1L10.8-11.1Q8.85-12 7.05-13.03 5.25-14.05 4.08-15.6 2.9-17.15 2.9-19.65L2.9-19.65Q2.9-21.95 4.15-23.38 5.4-24.8 7.45-25.45 9.5-26.1 11.9-26.1L11.9-26.1Q16-26.1 18.3-24.78 20.6-23.45 20.6-21.1L20.6-21.1Q20.6-20.25 20.2-19.6 19.8-18.95 18.75-18.8L18.75-18.8Q18.4-18.7 18.05-18.73 17.7-18.75 17.3-18.8L17.3-18.8Q17.4-19.3 17.4-19.88 17.4-20.45 17.25-20.9L17.25-20.9Q17.05-22.55 15.6-23.4 14.15-24.25 11.75-24.25L11.75-24.25Q10.4-24.25 9.22-23.93 8.05-23.6 7.33-22.83 6.6-22.05 6.6-20.8L6.6-20.8Q6.6-19.15 7.5-18.07 8.4-17 9.9-16.23 11.4-15.45 13.05-14.65L13.05-14.65Q14.55-13.95 16.05-13.23 17.55-12.5 18.82-11.58 20.1-10.65 20.85-9.45 21.6-8.25 21.6-6.5L21.6-6.5Q21.6-4.85 20.68-3.2 19.75-1.55 17.48-0.45 15.2 0.65 11.2 0.65ZM37.05 0.65L37.05 0.65Q31.65 0.65 28.62-2.88 25.6-6.4 25.6-12.7L25.6-12.7Q25.6-19 28.62-22.53 31.65-26.05 37.05-26.05L37.05-26.05Q42.5-26.05 45.52-22.53 48.55-19 48.55-12.7L48.55-12.7Q48.55-6.4 45.52-2.88 42.5 0.65 37.05 0.65ZM37.05-1.15L37.05-1.15Q40.55-1.15 42.4-4.15 44.25-7.15 44.25-12.7L44.25-12.7Q44.25-18.25 42.4-21.23 40.55-24.2 37.05-24.2L37.05-24.2Q33.6-24.2 31.72-21.23 29.85-18.25 29.85-12.7L29.85-12.7Q29.85-7.15 31.72-4.15 33.6-1.15 37.05-1.15ZM58.05 0.55L58.05 0.55Q57.05 0.55 56.4-0.05 55.75-0.65 55.75-1.65L55.75-1.65 55.7-27.8Q55.7-29.5 56.07-31.15 56.45-32.8 57.35-34.13 58.25-35.45 59.9-36.25 61.55-37.05 64.05-37.05L64.05-37.05Q67.05-37.05 68.87-35.95 70.7-34.85 70.7-32.8L70.7-32.8Q70.7-31.25 69.75-30.4 68.8-29.55 67.8-29.55L67.8-29.55Q67.3-29.55 66.87-29.68 66.45-29.8 66.2-30.05L66.2-30.05Q66.8-30.8 66.97-31.48 67.15-32.15 67.15-32.7L67.15-32.7Q67.15-34.15 66.27-34.75 65.4-35.35 63.95-35.35L63.95-35.35Q62-35.35 61.1-34.18 60.2-33 59.95-31.13 59.7-29.25 59.7-27.15L59.7-27.15 59.7-5.7Q59.7-4.4 59.82-2.93 59.95-1.45 60.3-0.35L60.3-0.35Q59.95 0 59.37 0.28 58.8 0.55 58.05 0.55ZM51.95-23.1L51.95-23.1 52-24.25Q52.05-24.8 52.37-25.08 52.7-25.35 53.15-25.35L53.15-25.35 62.8-25.35Q63-25.35 63.57-25.38 64.15-25.4 64.84-25.43 65.55-25.45 66.12-25.48 66.7-25.5 66.9-25.5L66.9-25.5 66.84-24.4Q66.8-23.85 66.5-23.55 66.2-23.25 65.7-23.25L65.7-23.25 54.95-23.25Q54.45-23.25 53.45-23.23 52.45-23.2 51.95-23.1ZM79.94 0.55L79.94 0.55Q77.54 0.55 76.22-0.93 74.89-2.4 74.89-5L74.89-5 74.89-29.8Q74.89-30.85 75.54-31.43 76.19-32 77.24-32L77.24-32Q78.14-32 78.69-31.68 79.24-31.35 79.54-31.1L79.54-31.1Q79.09-29.7 78.99-27.45 78.89-25.2 78.89-21.35L78.89-21.35 78.89-5.25Q78.89-4 79.49-3.28 80.09-2.55 81.29-2.55L81.29-2.55Q81.99-2.55 82.69-2.8 83.39-3.05 83.64-3.6L83.64-3.6Q83.94-3.2 84.07-2.78 84.19-2.35 84.19-2L84.19-2Q84.19-0.9 82.99-0.18 81.79 0.55 79.94 0.55ZM71.19-23.1L71.19-23.1 71.24-24.25Q71.29-24.8 71.62-25.08 71.94-25.35 72.34-25.35L72.34-25.35 80.94-25.35Q81.14-25.35 81.74-25.38 82.34-25.4 83.07-25.43 83.79-25.45 84.39-25.48 84.99-25.5 85.19-25.5L85.19-25.5 85.14-24.4Q85.09-23.85 84.79-23.55 84.49-23.25 84.04-23.25L84.04-23.25 74.19-23.25Q73.69-23.25 72.69-23.23 71.69-23.2 71.19-23.1ZM97.94 0.55L97.94 0.55Q97.19 0.55 96.57 0.2 95.94-0.15 95.64-0.95L95.64-0.95 88.89-22.45Q88.74-22.85 88.42-23.6 88.09-24.35 87.69-24.75L87.69-24.75Q88.04-25.1 88.62-25.4 89.19-25.7 90.04-25.7L90.04-25.7Q90.99-25.7 91.62-25.3 92.24-24.9 92.44-24.05L92.44-24.05 98.59-2.3 103.84-22.55Q103.94-22.85 104.02-23.3 104.09-23.75 104.09-24.15L104.09-24.15Q104.09-24.5 104.04-24.8 103.99-25.1 103.84-25.3L103.84-25.3Q104.44-25.55 105.19-25.68 105.94-25.8 106.54-25.8L106.54-25.8Q107.34-25.8 108.07-25.53 108.79-25.25 109.09-24.5L109.09-24.5 114.94-2.3 120.54-22.55Q120.64-22.9 120.72-23.33 120.79-23.75 120.79-24.15L120.79-24.15Q120.79-24.5 120.74-24.8 120.69-25.1 120.54-25.3L120.54-25.3Q120.99-25.5 121.44-25.6 121.89-25.7 122.54-25.7L122.54-25.7Q123.74-25.7 124.32-25.25 124.89-24.8 124.84-23.85L124.84-23.85Q124.84-23.45 124.72-22.83 124.59-22.2 124.39-21.6L124.39-21.6 117.14-0.1Q116.44 0.2 115.79 0.38 115.14 0.55 114.44 0.55L114.44 0.55Q113.69 0.55 112.97 0.2 112.24-0.15 112.04-0.95L112.04-0.95 106.54-21.55 100.89-0.1Q100.14 0.2 99.42 0.38 98.69 0.55 97.94 0.55ZM149.29 0.5L149.29 0.5Q147.14 0.5 146.04-0.98 144.94-2.45 144.94-5.7L144.94-5.7 144.94-10.15 145.89-9.7Q145.04-6.7 143.31-4.38 141.59-2.05 139.29-0.75 136.99 0.55 134.29 0.55L134.29 0.55Q131.34 0.55 129.69-1.03 128.04-2.6 128.04-5.25L128.04-5.25Q128.04-7.3 129.11-8.9 130.19-10.5 132.06-11.6 133.94-12.7 136.34-13.35L136.34-13.35Q138.44-13.9 140.66-14.1 142.89-14.3 144.74-14.2L144.74-14.2 144.74-15.5Q144.74-19.85 143.29-22.05 141.84-24.25 138.39-24.25L138.39-24.25Q137.19-24.25 135.96-23.88 134.74-23.5 133.96-22.65 133.19-21.8 133.19-20.2L133.19-20.2Q133.19-19.2 133.69-18.13 134.19-17.05 135.34-16.65L135.34-16.65Q134.89-16.1 134.24-15.88 133.59-15.65 132.94-15.65L132.94-15.65Q131.19-15.65 130.19-17 129.19-18.35 129.19-20.05L129.19-20.05Q129.19-23 131.79-24.53 134.39-26.05 138.74-26.05L138.74-26.05Q143.94-26.05 146.36-23.4 148.79-20.75 148.79-15.25L148.79-15.25 148.79-5.25Q148.79-2.6 150.59-2.6L150.59-2.6Q150.99-2.6 151.49-2.85 151.99-3.1 152.24-3.65L152.24-3.65Q152.54-3.25 152.66-2.83 152.79-2.4 152.79-2.1L152.79-2.1Q152.79-1 151.79-0.25 150.79 0.5 149.29 0.5ZM136.09-2.25L136.09-2.25Q137.54-2.25 139.06-3.13 140.59-4 141.89-5.45 143.19-6.9 144.01-8.75 144.84-10.6 144.84-12.6L144.84-12.6Q143.69-12.7 142.26-12.6 140.84-12.5 139.49-12.25 138.14-12 137.09-11.6L137.09-11.6Q134.89-10.8 133.64-9.43 132.39-8.05 132.39-6.1L132.39-6.1Q132.39-4.6 133.24-3.38 134.09-2.15 136.09-2.25ZM159.94 0.45L159.94 0.45Q159.04 0.45 158.34-0.18 157.64-0.8 157.64-1.9L157.64-1.9 157.64-20.3Q157.64-21.75 157.31-22.33 156.99-22.9 156.24-22.9L156.24-22.9Q155.99-22.9 155.59-22.75 155.19-22.6 154.94-22.1L154.94-22.1Q154.34-22.85 154.34-23.7L154.34-23.7Q154.34-24.7 155.14-25.35 155.94-26 157.34-26L157.34-26Q159.24-26 160.24-24.65 161.24-23.3 161.19-20.55L161.19-20.55 161.19-17.25 160.59-17.25Q161.09-21.6 162.99-23.83 164.89-26.05 167.84-26.05L167.84-26.05Q170.39-26.05 171.99-24.7 173.59-23.35 173.59-20.85L173.59-20.85Q173.59-19.2 172.69-18.15 171.79-17.1 170.64-17.05L170.64-17.05Q169.44-17 168.89-17.55L168.89-17.55Q169.49-18.5 169.66-19.23 169.84-19.95 169.84-20.75L169.84-20.75Q169.84-22.35 169.09-23.1 168.34-23.85 166.94-23.85L166.94-23.85Q165.59-23.85 164.36-22.7 163.14-21.55 162.39-18.98 161.64-16.4 161.64-12.05L161.64-12.05Q161.64-9.1 161.64-7.15 161.64-5.2 161.71-3.98 161.79-2.75 161.91-1.95 162.04-1.15 162.29-0.45L162.29-0.45Q161.99-0.15 161.41 0.15 160.84 0.45 159.94 0.45ZM187.98 0.65L187.98 0.65Q182.58 0.65 179.43-2.73 176.28-6.1 176.28-12.55L176.28-12.55Q176.28-18.8 179.36-22.43 182.43-26.05 188.18-26.05L188.18-26.05Q190.88-26.05 192.93-25.23 194.98-24.4 196.16-22.8 197.33-21.2 197.33-18.85L197.33-18.85Q197.33-15.1 194.31-13.18 191.28-11.25 185.98-11.25L185.98-11.25Q183.88-11.25 181.98-11.43 180.08-11.6 178.13-12L178.13-12 178.23-13.65Q179.48-13.4 181.16-13.25 182.83-13.1 184.43-13.05L184.43-13.05Q186.18-13.05 187.76-13.35 189.33-13.65 190.53-14.35 191.73-15.05 192.41-16.28 193.08-17.5 193.08-19.35L193.08-19.35Q193.08-21.3 192.33-22.35 191.58-23.4 190.43-23.83 189.28-24.25 188.03-24.25L188.03-24.25Q184.68-24.25 182.61-21.43 180.53-18.6 180.53-13.05L180.53-13.05Q180.53-8.9 181.66-6.53 182.78-4.15 184.68-3.13 186.58-2.1 188.93-2.1L188.93-2.1Q191.63-2.1 193.68-3.23 195.73-4.35 196.43-6.45L196.43-6.45Q196.93-6.25 197.16-5.73 197.38-5.2 196.88-3.95L196.88-3.95Q195.93-1.7 193.53-0.53 191.13 0.65 187.98 0.65ZM225.53 0.65L225.53 0.65Q220.13 0.65 216.98-2.73 213.83-6.1 213.83-12.55L213.83-12.55Q213.83-18.8 216.9-22.43 219.98-26.05 225.73-26.05L225.73-26.05Q228.43-26.05 230.48-25.23 232.53-24.4 233.7-22.8 234.88-21.2 234.88-18.85L234.88-18.85Q234.88-15.1 231.85-13.18 228.83-11.25 223.53-11.25L223.53-11.25Q221.43-11.25 219.53-11.43 217.63-11.6 215.68-12L215.68-12 215.78-13.65Q217.03-13.4 218.7-13.25 220.38-13.1 221.98-13.05L221.98-13.05Q223.73-13.05 225.3-13.35 226.88-13.65 228.08-14.35 229.28-15.05 229.95-16.28 230.63-17.5 230.63-19.35L230.63-19.35Q230.63-21.3 229.88-22.35 229.13-23.4 227.98-23.83 226.83-24.25 225.58-24.25L225.58-24.25Q222.23-24.25 220.15-21.43 218.08-18.6 218.08-13.05L218.08-13.05Q218.08-8.9 219.2-6.53 220.33-4.15 222.23-3.13 224.13-2.1 226.48-2.1L226.48-2.1Q229.18-2.1 231.23-3.23 233.28-4.35 233.98-6.45L233.98-6.45Q234.48-6.25 234.7-5.73 234.93-5.2 234.43-3.95L234.43-3.95Q233.48-1.7 231.08-0.53 228.68 0.65 225.53 0.65ZM244.13 0.55L244.13 0.55Q243.08 0.55 242.43-0.1 241.78-0.75 241.78-1.85L241.78-1.85 241.78-20.3Q241.73-21.75 241.43-22.33 241.13-22.9 240.38-22.9L240.38-22.9Q240.13-22.9 239.73-22.75 239.33-22.6 239.08-22.1L239.08-22.1Q238.48-22.85 238.48-23.7L238.48-23.7Q238.48-24.7 239.28-25.35 240.08-26 241.48-26L241.48-26Q243.38-26 244.38-24.73 245.38-23.45 245.38-20.85L245.38-20.85 245.38-17.35 244.63-16.45Q244.93-19.45 246.15-21.6 247.38-23.75 249.4-24.9 251.43-26.05 253.98-26.05L253.98-26.05Q258.13-26.05 260.08-23.4 262.03-20.75 262.03-15.65L262.03-15.65 262.03-5.7Q262.08-4.4 262.2-2.93 262.33-1.45 262.68-0.35L262.68-0.35Q262.28 0 261.73 0.28 261.18 0.55 260.38 0.55L260.38 0.55Q259.38 0.55 258.7-0.05 258.03-0.65 258.03-1.65L258.03-1.65 258.03-15.15Q257.98-19.35 256.85-21.53 255.73-23.7 252.83-23.7L252.83-23.7Q251.58-23.7 250.35-23.1 249.13-22.5 248.08-21.13 247.03-19.75 246.38-17.5 245.73-15.25 245.73-12.05L245.73-12.05Q245.73-9.05 245.75-7.1 245.78-5.15 245.83-3.9 245.88-2.65 246.03-1.85 246.18-1.05 246.43-0.35L246.43-0.35Q246.13-0.1 245.55 0.23 244.98 0.55 244.13 0.55ZM276.77 11.65L276.77 11.65Q274.52 11.65 272.57 11 270.62 10.35 269.45 9.03 268.27 7.7 268.27 5.65L268.27 5.65Q268.27 3.95 269.2 2.95 270.12 1.95 271.37 1.95L271.37 1.95Q272.77 1.95 273.37 2.7L273.37 2.7Q272.62 3.25 272.3 4.03 271.97 4.8 271.97 5.75L271.97 5.75Q271.97 7.15 272.6 8.08 273.22 9 274.35 9.47 275.47 9.95 276.92 9.95L276.92 9.95Q281.22 9.95 283.22 6.8 285.22 3.65 285.22-2.25L285.22-2.25Q285.22-2.95 285.22-3.88 285.22-4.8 285.22-5.65L285.22-5.65Q284.32-2.9 282.17-1.35 280.02 0.2 276.92 0.2L276.92 0.2Q274.22 0.2 272.22-1.07 270.22-2.35 269.15-5.15 268.07-7.95 268.07-12.4L268.07-12.4Q268.07-14.3 268.37-16.23 268.67-18.15 269.4-19.93 270.12-21.7 271.42-23.08 272.72-24.45 274.7-25.25 276.67-26.05 279.47-26.05L279.47-26.05Q281.17-26.05 282.95-25.75 284.72-25.45 286.37-24.73 288.02-24 289.17-22.75L289.17-22.75 289.17-2.25Q289.17 2.95 287.57 6 285.97 9.05 283.17 10.35 280.37 11.65 276.77 11.65ZM277.97-2L277.97-2Q279.97-2 281.35-2.93 282.72-3.85 283.57-5.35 284.42-6.85 284.82-8.7 285.22-10.55 285.22-12.4L285.22-12.4 285.27-22.35Q284.37-23.3 282.8-23.75 281.22-24.2 279.42-24.2L279.42-24.2Q277.12-24.2 275.72-23.15 274.32-22.1 273.57-20.35 272.82-18.6 272.57-16.43 272.32-14.25 272.32-12L272.32-12Q272.32-6.65 273.7-4.33 275.07-2 277.97-2ZM299.07-30.15L299.07-30.15Q297.97-30.15 297.17-30.95 296.37-31.75 296.37-32.85L296.37-32.85Q296.37-34 297.17-34.77 297.97-35.55 299.07-35.55L299.07-35.55Q300.22-35.55 301-34.77 301.77-34 301.77-32.85L301.77-32.85Q301.77-31.75 301-30.95 300.22-30.15 299.07-30.15ZM301.22-23.85L301.27-5.7Q301.27-4.25 301.4-2.85 301.52-1.45 301.92-0.35L301.92-0.35Q301.62-0.1 301.05 0.23 300.47 0.55 299.62 0.55L299.62 0.55Q298.67 0.55 298.02-0.05 297.37-0.65 297.37-1.65L297.37-1.65 297.32-19.8Q297.32-21.25 297.2-22.65 297.07-24.05 296.67-25.15L296.67-25.15Q296.97-25.4 297.55-25.73 298.12-26.05 298.97-26.05L298.97-26.05Q299.97-26.05 300.6-25.48 301.22-24.9 301.22-23.85L301.22-23.85ZM312.67 0.55L312.67 0.55Q311.62 0.55 310.97-0.1 310.32-0.75 310.32-1.85L310.32-1.85 310.32-20.3Q310.27-21.75 309.97-22.33 309.67-22.9 308.92-22.9L308.92-22.9Q308.67-22.9 308.27-22.75 307.87-22.6 307.62-22.1L307.62-22.1Q307.02-22.85 307.02-23.7L307.02-23.7Q307.02-24.7 307.82-25.35 308.62-26 310.02-26L310.02-26Q311.92-26 312.92-24.73 313.92-23.45 313.92-20.85L313.92-20.85 313.92-17.35 313.17-16.45Q313.47-19.45 314.69-21.6 315.92-23.75 317.94-24.9 319.97-26.05 322.52-26.05L322.52-26.05Q326.67-26.05 328.62-23.4 330.57-20.75 330.57-15.65L330.57-15.65 330.57-5.7Q330.62-4.4 330.74-2.93 330.87-1.45 331.22-0.35L331.22-0.35Q330.82 0 330.27 0.28 329.72 0.55 328.92 0.55L328.92 0.55Q327.92 0.55 327.24-0.05 326.57-0.65 326.57-1.65L326.57-1.65 326.57-15.15Q326.52-19.35 325.39-21.53 324.27-23.7 321.37-23.7L321.37-23.7Q320.12-23.7 318.89-23.1 317.67-22.5 316.62-21.13 315.57-19.75 314.92-17.5 314.27-15.25 314.27-12.05L314.27-12.05Q314.27-9.05 314.29-7.1 314.32-5.15 314.37-3.9 314.42-2.65 314.57-1.85 314.72-1.05 314.97-0.35L314.97-0.35Q314.67-0.1 314.09 0.23 313.52 0.55 312.67 0.55ZM348.32 0.65L348.32 0.65Q342.92 0.65 339.77-2.73 336.62-6.1 336.62-12.55L336.62-12.55Q336.62-18.8 339.69-22.43 342.77-26.05 348.52-26.05L348.52-26.05Q351.22-26.05 353.27-25.23 355.32-24.4 356.49-22.8 357.67-21.2 357.67-18.85L357.67-18.85Q357.67-15.1 354.64-13.18 351.62-11.25 346.32-11.25L346.32-11.25Q344.22-11.25 342.32-11.43 340.42-11.6 338.47-12L338.47-12 338.57-13.65Q339.82-13.4 341.49-13.25 343.17-13.1 344.77-13.05L344.77-13.05Q346.52-13.05 348.09-13.35 349.67-13.65 350.87-14.35 352.07-15.05 352.74-16.28 353.42-17.5 353.42-19.35L353.42-19.35Q353.42-21.3 352.67-22.35 351.92-23.4 350.77-23.83 349.62-24.25 348.37-24.25L348.37-24.25Q345.02-24.25 342.94-21.43 340.87-18.6 340.87-13.05L340.87-13.05Q340.87-8.9 341.99-6.53 343.12-4.15 345.02-3.13 346.92-2.1 349.27-2.1L349.27-2.1Q351.97-2.1 354.02-3.23 356.07-4.35 356.77-6.45L356.77-6.45Q357.27-6.25 357.49-5.73 357.72-5.2 357.22-3.95L357.22-3.95Q356.27-1.7 353.87-0.53 351.47 0.65 348.32 0.65ZM373.86 0.65L373.86 0.65Q368.46 0.65 365.31-2.73 362.16-6.1 362.16-12.55L362.16-12.55Q362.16-18.8 365.24-22.43 368.31-26.05 374.06-26.05L374.06-26.05Q376.76-26.05 378.81-25.23 380.86-24.4 382.04-22.8 383.21-21.2 383.21-18.85L383.21-18.85Q383.21-15.1 380.19-13.18 377.16-11.25 371.86-11.25L371.86-11.25Q369.76-11.25 367.86-11.43 365.96-11.6 364.01-12L364.01-12 364.11-13.65Q365.36-13.4 367.04-13.25 368.71-13.1 370.31-13.05L370.31-13.05Q372.06-13.05 373.64-13.35 375.21-13.65 376.41-14.35 377.61-15.05 378.29-16.28 378.96-17.5 378.96-19.35L378.96-19.35Q378.96-21.3 378.21-22.35 377.46-23.4 376.31-23.83 375.16-24.25 373.91-24.25L373.91-24.25Q370.56-24.25 368.49-21.43 366.41-18.6 366.41-13.05L366.41-13.05Q366.41-8.9 367.54-6.53 368.66-4.15 370.56-3.13 372.46-2.1 374.81-2.1L374.81-2.1Q377.51-2.1 379.56-3.23 381.61-4.35 382.31-6.45L382.31-6.45Q382.81-6.25 383.04-5.73 383.26-5.2 382.76-3.95L382.76-3.95Q381.81-1.7 379.41-0.53 377.01 0.65 373.86 0.65ZM392.41 0.45L392.41 0.45Q391.51 0.45 390.81-0.18 390.11-0.8 390.11-1.9L390.11-1.9 390.11-20.3Q390.11-21.75 389.79-22.33 389.46-22.9 388.71-22.9L388.71-22.9Q388.46-22.9 388.06-22.75 387.66-22.6 387.41-22.1L387.41-22.1Q386.81-22.85 386.81-23.7L386.81-23.7Q386.81-24.7 387.61-25.35 388.41-26 389.81-26L389.81-26Q391.71-26 392.71-24.65 393.71-23.3 393.66-20.55L393.66-20.55 393.66-17.25 393.06-17.25Q393.56-21.6 395.46-23.83 397.36-26.05 400.31-26.05L400.31-26.05Q402.86-26.05 404.46-24.7 406.06-23.35 406.06-20.85L406.06-20.85Q406.06-19.2 405.16-18.15 404.26-17.1 403.11-17.05L403.11-17.05Q401.91-17 401.36-17.55L401.36-17.55Q401.96-18.5 402.14-19.23 402.31-19.95 402.31-20.75L402.31-20.75Q402.31-22.35 401.56-23.1 400.81-23.85 399.41-23.85L399.41-23.85Q398.06-23.85 396.84-22.7 395.61-21.55 394.86-18.98 394.11-16.4 394.11-12.05L394.11-12.05Q394.11-9.1 394.11-7.15 394.11-5.2 394.19-3.98 394.26-2.75 394.39-1.95 394.51-1.15 394.76-0.45L394.76-0.45Q394.46-0.15 393.89 0.15 393.31 0.45 392.41 0.45Z" opacity="1" transform="matrix(1,0,0,1,0,0)" fill="black" class="slogan-text-1" id="SvgjsPath5471" stroke-width="5" stroke="black" stroke-linejoin="round"></path></svg></g></svg></g></svg></g></svg></g></svg></g></svg></g></svg></g></mask><g mask="url(#d982b744-b1dd-4157-9d75-cc26c21eb4dd)"><g><path d="M269.252 61.934v116.894c0 0.565 0.429 1.016 1.287 1.355 0.836 0.339 1.705 0.508 2.609 0.509v0 3.218h-29.647v-3.218c0.904 0 1.784-0.169 2.643-0.509 0.836-0.339 1.254-0.791 1.253-1.355v0-97.073l-49.637 108.593-49.468-108.931v97.411c0 0.565 0.429 1.016 1.287 1.355 0.836 0.339 1.705 0.508 2.609 0.509v0 3.218h-29.816v-3.218c0.904 0 1.784-0.169 2.643-0.509 0.836-0.339 1.254-0.791 1.253-1.355v0-116.894c0-0.565-0.418-1.016-1.253-1.355-0.858-0.339-1.683-0.508-2.474-0.508v0-3.219h43.708v3.219c-1.355 0-2.225 0.316-2.608 0.949-0.407 0.61-0.44 1.31-0.102 2.1v0l34.39 79.962 34.899-79.962c0.226-0.678-0.113-1.355-1.016-2.033-0.904-0.678-2.033-1.016-3.389-1.016v0-3.219h44.556v3.219c-0.791 0-1.604 0.169-2.44 0.508-0.858 0.339-1.288 0.791-1.288 1.355z" fill="#bb86fc" fill-rule="nonzero" stroke="none" stroke-width="1" stroke-linecap="butt" stroke-linejoin="miter" stroke-miterlimit="10" stroke-dasharray="" stroke-dashoffset="0" font-family="none" font-weight="none" font-size="none" text-anchor="none" style="mix-blend-mode: normal" data-fill-palette-color="tertiary"></path></g></g><g transform="matrix(1,0,0,1,121.92703146125108,37.08)"><svg viewBox="0 0 151.66593707749783 173.04" height="173.04" width="151.66593707749783"><g><svg viewBox="0 0 151.66593707749783 173.04" height="173.04" width="151.66593707749783"><g><svg viewBox="0 0 191.72399399999998 218.74338141469337" height="173.04" width="151.66593707749783"><g><svg viewBox="0 0 191.72399399999998 218.74338141469337" height="218.74338141469337" width="191.72399399999998"><g id="textblocktransform"><svg viewBox="0 0 191.72399399999998 218.74338141469337" height="218.74338141469337" width="191.72399399999998" id="textblock"><g><svg viewBox="0 0 191.72399399999998 171.9706128" height="171.9706128" width="191.72399399999998"><g transform="matrix(1,0,0,1,0,0)"><svg width="191.72399399999998" viewBox="-0.5 -40.5 50.5 45.4" height="171.9706128" data-palette-color="#bb86fc"><path d="M45.85-36L45.85-1.5Q45.85-1.25 46.23-1.1 46.6-0.95 47-0.95L47-0.95 47 0 38.25 0 38.25-0.95Q38.65-0.95 39.03-1.1 39.4-1.25 39.4-1.5L39.4-1.5 39.4-30.15 24.75 1.9 10.15-30.25 10.15-1.5Q10.15-1.25 10.53-1.1 10.9-0.95 11.3-0.95L11.3-0.95 11.3 0 2.5 0 2.5-0.95Q2.9-0.95 3.28-1.1 3.65-1.25 3.65-1.5L3.65-1.5 3.65-36Q3.65-36.25 3.28-36.4 2.9-36.55 2.55-36.55L2.55-36.55 2.55-37.5 15.45-37.5 15.45-36.55Q14.85-36.55 14.68-36.27 14.5-36 14.65-35.65L14.65-35.65 24.8-12.05 35.1-35.65Q35.2-35.95 34.8-36.25 34.4-36.55 33.8-36.55L33.8-36.55 33.8-37.5 46.95-37.5 46.95-36.55Q46.6-36.55 46.23-36.4 45.85-36.25 45.85-36L45.85-36Z" opacity="1" transform="matrix(1,0,0,1,0,0)" fill="#bb86fc" class="wordmark-text-0" data-fill-palette-color="primary" id="text-0"></path></svg></g></svg></g><g transform="matrix(1,0,0,1,2.5,194.2392795627872)"><svg viewBox="0 0 186.72399399999998 24.504101851906157" height="24.504101851906157" width="186.72399399999998"><g transform="matrix(1,0,0,1,0,0)"><svg width="186.72399399999998" viewBox="-1.1 -40.05 410.16 54.699999999999996" height="24.504101851906157" data-palette-color="#bb86fc"><path d="M11.2 0.65L11.2 0.65Q7.95 0.65 5.88-0.18 3.8-1 2.85-2.38 1.9-3.75 1.9-5.4L1.9-5.4Q1.9-6.25 2.2-6.95 2.5-7.65 3.23-8.03 3.95-8.4 5.2-8.15L5.2-8.15Q5.05-7.65 5.03-7.18 5-6.7 5.1-6.05L5.1-6.05Q5.2-3.85 6.9-2.55 8.6-1.25 11.55-1.25L11.55-1.25Q14.3-1.25 16.05-2.25 17.8-3.25 17.8-5.2L17.8-5.2Q17.8-6.8 16.78-7.78 15.75-8.75 14.15-9.5 12.55-10.25 10.8-11.1L10.8-11.1Q8.85-12 7.05-13.03 5.25-14.05 4.08-15.6 2.9-17.15 2.9-19.65L2.9-19.65Q2.9-21.95 4.15-23.38 5.4-24.8 7.45-25.45 9.5-26.1 11.9-26.1L11.9-26.1Q16-26.1 18.3-24.78 20.6-23.45 20.6-21.1L20.6-21.1Q20.6-20.25 20.2-19.6 19.8-18.95 18.75-18.8L18.75-18.8Q18.4-18.7 18.05-18.73 17.7-18.75 17.3-18.8L17.3-18.8Q17.4-19.3 17.4-19.88 17.4-20.45 17.25-20.9L17.25-20.9Q17.05-22.55 15.6-23.4 14.15-24.25 11.75-24.25L11.75-24.25Q10.4-24.25 9.22-23.93 8.05-23.6 7.33-22.83 6.6-22.05 6.6-20.8L6.6-20.8Q6.6-19.15 7.5-18.07 8.4-17 9.9-16.23 11.4-15.45 13.05-14.65L13.05-14.65Q14.55-13.95 16.05-13.23 17.55-12.5 18.82-11.58 20.1-10.65 20.85-9.45 21.6-8.25 21.6-6.5L21.6-6.5Q21.6-4.85 20.68-3.2 19.75-1.55 17.48-0.45 15.2 0.65 11.2 0.65ZM37.05 0.65L37.05 0.65Q31.65 0.65 28.62-2.88 25.6-6.4 25.6-12.7L25.6-12.7Q25.6-19 28.62-22.53 31.65-26.05 37.05-26.05L37.05-26.05Q42.5-26.05 45.52-22.53 48.55-19 48.55-12.7L48.55-12.7Q48.55-6.4 45.52-2.88 42.5 0.65 37.05 0.65ZM37.05-1.15L37.05-1.15Q40.55-1.15 42.4-4.15 44.25-7.15 44.25-12.7L44.25-12.7Q44.25-18.25 42.4-21.23 40.55-24.2 37.05-24.2L37.05-24.2Q33.6-24.2 31.72-21.23 29.85-18.25 29.85-12.7L29.85-12.7Q29.85-7.15 31.72-4.15 33.6-1.15 37.05-1.15ZM58.05 0.55L58.05 0.55Q57.05 0.55 56.4-0.05 55.75-0.65 55.75-1.65L55.75-1.65 55.7-27.8Q55.7-29.5 56.07-31.15 56.45-32.8 57.35-34.13 58.25-35.45 59.9-36.25 61.55-37.05 64.05-37.05L64.05-37.05Q67.05-37.05 68.87-35.95 70.7-34.85 70.7-32.8L70.7-32.8Q70.7-31.25 69.75-30.4 68.8-29.55 67.8-29.55L67.8-29.55Q67.3-29.55 66.87-29.68 66.45-29.8 66.2-30.05L66.2-30.05Q66.8-30.8 66.97-31.48 67.15-32.15 67.15-32.7L67.15-32.7Q67.15-34.15 66.27-34.75 65.4-35.35 63.95-35.35L63.95-35.35Q62-35.35 61.1-34.18 60.2-33 59.95-31.13 59.7-29.25 59.7-27.15L59.7-27.15 59.7-5.7Q59.7-4.4 59.82-2.93 59.95-1.45 60.3-0.35L60.3-0.35Q59.95 0 59.37 0.28 58.8 0.55 58.05 0.55ZM51.95-23.1L51.95-23.1 52-24.25Q52.05-24.8 52.37-25.08 52.7-25.35 53.15-25.35L53.15-25.35 62.8-25.35Q63-25.35 63.57-25.38 64.15-25.4 64.84-25.43 65.55-25.45 66.12-25.48 66.7-25.5 66.9-25.5L66.9-25.5 66.84-24.4Q66.8-23.85 66.5-23.55 66.2-23.25 65.7-23.25L65.7-23.25 54.95-23.25Q54.45-23.25 53.45-23.23 52.45-23.2 51.95-23.1ZM79.94 0.55L79.94 0.55Q77.54 0.55 76.22-0.93 74.89-2.4 74.89-5L74.89-5 74.89-29.8Q74.89-30.85 75.54-31.43 76.19-32 77.24-32L77.24-32Q78.14-32 78.69-31.68 79.24-31.35 79.54-31.1L79.54-31.1Q79.09-29.7 78.99-27.45 78.89-25.2 78.89-21.35L78.89-21.35 78.89-5.25Q78.89-4 79.49-3.28 80.09-2.55 81.29-2.55L81.29-2.55Q81.99-2.55 82.69-2.8 83.39-3.05 83.64-3.6L83.64-3.6Q83.94-3.2 84.07-2.78 84.19-2.35 84.19-2L84.19-2Q84.19-0.9 82.99-0.18 81.79 0.55 79.94 0.55ZM71.19-23.1L71.19-23.1 71.24-24.25Q71.29-24.8 71.62-25.08 71.94-25.35 72.34-25.35L72.34-25.35 80.94-25.35Q81.14-25.35 81.74-25.38 82.34-25.4 83.07-25.43 83.79-25.45 84.39-25.48 84.99-25.5 85.19-25.5L85.19-25.5 85.14-24.4Q85.09-23.85 84.79-23.55 84.49-23.25 84.04-23.25L84.04-23.25 74.19-23.25Q73.69-23.25 72.69-23.23 71.69-23.2 71.19-23.1ZM97.94 0.55L97.94 0.55Q97.19 0.55 96.57 0.2 95.94-0.15 95.64-0.95L95.64-0.95 88.89-22.45Q88.74-22.85 88.42-23.6 88.09-24.35 87.69-24.75L87.69-24.75Q88.04-25.1 88.62-25.4 89.19-25.7 90.04-25.7L90.04-25.7Q90.99-25.7 91.62-25.3 92.24-24.9 92.44-24.05L92.44-24.05 98.59-2.3 103.84-22.55Q103.94-22.85 104.02-23.3 104.09-23.75 104.09-24.15L104.09-24.15Q104.09-24.5 104.04-24.8 103.99-25.1 103.84-25.3L103.84-25.3Q104.44-25.55 105.19-25.68 105.94-25.8 106.54-25.8L106.54-25.8Q107.34-25.8 108.07-25.53 108.79-25.25 109.09-24.5L109.09-24.5 114.94-2.3 120.54-22.55Q120.64-22.9 120.72-23.33 120.79-23.75 120.79-24.15L120.79-24.15Q120.79-24.5 120.74-24.8 120.69-25.1 120.54-25.3L120.54-25.3Q120.99-25.5 121.44-25.6 121.89-25.7 122.54-25.7L122.54-25.7Q123.74-25.7 124.32-25.25 124.89-24.8 124.84-23.85L124.84-23.85Q124.84-23.45 124.72-22.83 124.59-22.2 124.39-21.6L124.39-21.6 117.14-0.1Q116.44 0.2 115.79 0.38 115.14 0.55 114.44 0.55L114.44 0.55Q113.69 0.55 112.97 0.2 112.24-0.15 112.04-0.95L112.04-0.95 106.54-21.55 100.89-0.1Q100.14 0.2 99.42 0.38 98.69 0.55 97.94 0.55ZM149.29 0.5L149.29 0.5Q147.14 0.5 146.04-0.98 144.94-2.45 144.94-5.7L144.94-5.7 144.94-10.15 145.89-9.7Q145.04-6.7 143.31-4.38 141.59-2.05 139.29-0.75 136.99 0.55 134.29 0.55L134.29 0.55Q131.34 0.55 129.69-1.03 128.04-2.6 128.04-5.25L128.04-5.25Q128.04-7.3 129.11-8.9 130.19-10.5 132.06-11.6 133.94-12.7 136.34-13.35L136.34-13.35Q138.44-13.9 140.66-14.1 142.89-14.3 144.74-14.2L144.74-14.2 144.74-15.5Q144.74-19.85 143.29-22.05 141.84-24.25 138.39-24.25L138.39-24.25Q137.19-24.25 135.96-23.88 134.74-23.5 133.96-22.65 133.19-21.8 133.19-20.2L133.19-20.2Q133.19-19.2 133.69-18.13 134.19-17.05 135.34-16.65L135.34-16.65Q134.89-16.1 134.24-15.88 133.59-15.65 132.94-15.65L132.94-15.65Q131.19-15.65 130.19-17 129.19-18.35 129.19-20.05L129.19-20.05Q129.19-23 131.79-24.53 134.39-26.05 138.74-26.05L138.74-26.05Q143.94-26.05 146.36-23.4 148.79-20.75 148.79-15.25L148.79-15.25 148.79-5.25Q148.79-2.6 150.59-2.6L150.59-2.6Q150.99-2.6 151.49-2.85 151.99-3.1 152.24-3.65L152.24-3.65Q152.54-3.25 152.66-2.83 152.79-2.4 152.79-2.1L152.79-2.1Q152.79-1 151.79-0.25 150.79 0.5 149.29 0.5ZM136.09-2.25L136.09-2.25Q137.54-2.25 139.06-3.13 140.59-4 141.89-5.45 143.19-6.9 144.01-8.75 144.84-10.6 144.84-12.6L144.84-12.6Q143.69-12.7 142.26-12.6 140.84-12.5 139.49-12.25 138.14-12 137.09-11.6L137.09-11.6Q134.89-10.8 133.64-9.43 132.39-8.05 132.39-6.1L132.39-6.1Q132.39-4.6 133.24-3.38 134.09-2.15 136.09-2.25ZM159.94 0.45L159.94 0.45Q159.04 0.45 158.34-0.18 157.64-0.8 157.64-1.9L157.64-1.9 157.64-20.3Q157.64-21.75 157.31-22.33 156.99-22.9 156.24-22.9L156.24-22.9Q155.99-22.9 155.59-22.75 155.19-22.6 154.94-22.1L154.94-22.1Q154.34-22.85 154.34-23.7L154.34-23.7Q154.34-24.7 155.14-25.35 155.94-26 157.34-26L157.34-26Q159.24-26 160.24-24.65 161.24-23.3 161.19-20.55L161.19-20.55 161.19-17.25 160.59-17.25Q161.09-21.6 162.99-23.83 164.89-26.05 167.84-26.05L167.84-26.05Q170.39-26.05 171.99-24.7 173.59-23.35 173.59-20.85L173.59-20.85Q173.59-19.2 172.69-18.15 171.79-17.1 170.64-17.05L170.64-17.05Q169.44-17 168.89-17.55L168.89-17.55Q169.49-18.5 169.66-19.23 169.84-19.95 169.84-20.75L169.84-20.75Q169.84-22.35 169.09-23.1 168.34-23.85 166.94-23.85L166.94-23.85Q165.59-23.85 164.36-22.7 163.14-21.55 162.39-18.98 161.64-16.4 161.64-12.05L161.64-12.05Q161.64-9.1 161.64-7.15 161.64-5.2 161.71-3.98 161.79-2.75 161.91-1.95 162.04-1.15 162.29-0.45L162.29-0.45Q161.99-0.15 161.41 0.15 160.84 0.45 159.94 0.45ZM187.98 0.65L187.98 0.65Q182.58 0.65 179.43-2.73 176.28-6.1 176.28-12.55L176.28-12.55Q176.28-18.8 179.36-22.43 182.43-26.05 188.18-26.05L188.18-26.05Q190.88-26.05 192.93-25.23 194.98-24.4 196.16-22.8 197.33-21.2 197.33-18.85L197.33-18.85Q197.33-15.1 194.31-13.18 191.28-11.25 185.98-11.25L185.98-11.25Q183.88-11.25 181.98-11.43 180.08-11.6 178.13-12L178.13-12 178.23-13.65Q179.48-13.4 181.16-13.25 182.83-13.1 184.43-13.05L184.43-13.05Q186.18-13.05 187.76-13.35 189.33-13.65 190.53-14.35 191.73-15.05 192.41-16.28 193.08-17.5 193.08-19.35L193.08-19.35Q193.08-21.3 192.33-22.35 191.58-23.4 190.43-23.83 189.28-24.25 188.03-24.25L188.03-24.25Q184.68-24.25 182.61-21.43 180.53-18.6 180.53-13.05L180.53-13.05Q180.53-8.9 181.66-6.53 182.78-4.15 184.68-3.13 186.58-2.1 188.93-2.1L188.93-2.1Q191.63-2.1 193.68-3.23 195.73-4.35 196.43-6.45L196.43-6.45Q196.93-6.25 197.16-5.73 197.38-5.2 196.88-3.95L196.88-3.95Q195.93-1.7 193.53-0.53 191.13 0.65 187.98 0.65ZM225.53 0.65L225.53 0.65Q220.13 0.65 216.98-2.73 213.83-6.1 213.83-12.55L213.83-12.55Q213.83-18.8 216.9-22.43 219.98-26.05 225.73-26.05L225.73-26.05Q228.43-26.05 230.48-25.23 232.53-24.4 233.7-22.8 234.88-21.2 234.88-18.85L234.88-18.85Q234.88-15.1 231.85-13.18 228.83-11.25 223.53-11.25L223.53-11.25Q221.43-11.25 219.53-11.43 217.63-11.6 215.68-12L215.68-12 215.78-13.65Q217.03-13.4 218.7-13.25 220.38-13.1 221.98-13.05L221.98-13.05Q223.73-13.05 225.3-13.35 226.88-13.65 228.08-14.35 229.28-15.05 229.95-16.28 230.63-17.5 230.63-19.35L230.63-19.35Q230.63-21.3 229.88-22.35 229.13-23.4 227.98-23.83 226.83-24.25 225.58-24.25L225.58-24.25Q222.23-24.25 220.15-21.43 218.08-18.6 218.08-13.05L218.08-13.05Q218.08-8.9 219.2-6.53 220.33-4.15 222.23-3.13 224.13-2.1 226.48-2.1L226.48-2.1Q229.18-2.1 231.23-3.23 233.28-4.35 233.98-6.45L233.98-6.45Q234.48-6.25 234.7-5.73 234.93-5.2 234.43-3.95L234.43-3.95Q233.48-1.7 231.08-0.53 228.68 0.65 225.53 0.65ZM244.13 0.55L244.13 0.55Q243.08 0.55 242.43-0.1 241.78-0.75 241.78-1.85L241.78-1.85 241.78-20.3Q241.73-21.75 241.43-22.33 241.13-22.9 240.38-22.9L240.38-22.9Q240.13-22.9 239.73-22.75 239.33-22.6 239.08-22.1L239.08-22.1Q238.48-22.85 238.48-23.7L238.48-23.7Q238.48-24.7 239.28-25.35 240.08-26 241.48-26L241.48-26Q243.38-26 244.38-24.73 245.38-23.45 245.38-20.85L245.38-20.85 245.38-17.35 244.63-16.45Q244.93-19.45 246.15-21.6 247.38-23.75 249.4-24.9 251.43-26.05 253.98-26.05L253.98-26.05Q258.13-26.05 260.08-23.4 262.03-20.75 262.03-15.65L262.03-15.65 262.03-5.7Q262.08-4.4 262.2-2.93 262.33-1.45 262.68-0.35L262.68-0.35Q262.28 0 261.73 0.28 261.18 0.55 260.38 0.55L260.38 0.55Q259.38 0.55 258.7-0.05 258.03-0.65 258.03-1.65L258.03-1.65 258.03-15.15Q257.98-19.35 256.85-21.53 255.73-23.7 252.83-23.7L252.83-23.7Q251.58-23.7 250.35-23.1 249.13-22.5 248.08-21.13 247.03-19.75 246.38-17.5 245.73-15.25 245.73-12.05L245.73-12.05Q245.73-9.05 245.75-7.1 245.78-5.15 245.83-3.9 245.88-2.65 246.03-1.85 246.18-1.05 246.43-0.35L246.43-0.35Q246.13-0.1 245.55 0.23 244.98 0.55 244.13 0.55ZM276.77 11.65L276.77 11.65Q274.52 11.65 272.57 11 270.62 10.35 269.45 9.03 268.27 7.7 268.27 5.65L268.27 5.65Q268.27 3.95 269.2 2.95 270.12 1.95 271.37 1.95L271.37 1.95Q272.77 1.95 273.37 2.7L273.37 2.7Q272.62 3.25 272.3 4.03 271.97 4.8 271.97 5.75L271.97 5.75Q271.97 7.15 272.6 8.08 273.22 9 274.35 9.47 275.47 9.95 276.92 9.95L276.92 9.95Q281.22 9.95 283.22 6.8 285.22 3.65 285.22-2.25L285.22-2.25Q285.22-2.95 285.22-3.88 285.22-4.8 285.22-5.65L285.22-5.65Q284.32-2.9 282.17-1.35 280.02 0.2 276.92 0.2L276.92 0.2Q274.22 0.2 272.22-1.07 270.22-2.35 269.15-5.15 268.07-7.95 268.07-12.4L268.07-12.4Q268.07-14.3 268.37-16.23 268.67-18.15 269.4-19.93 270.12-21.7 271.42-23.08 272.72-24.45 274.7-25.25 276.67-26.05 279.47-26.05L279.47-26.05Q281.17-26.05 282.95-25.75 284.72-25.45 286.37-24.73 288.02-24 289.17-22.75L289.17-22.75 289.17-2.25Q289.17 2.95 287.57 6 285.97 9.05 283.17 10.35 280.37 11.65 276.77 11.65ZM277.97-2L277.97-2Q279.97-2 281.35-2.93 282.72-3.85 283.57-5.35 284.42-6.85 284.82-8.7 285.22-10.55 285.22-12.4L285.22-12.4 285.27-22.35Q284.37-23.3 282.8-23.75 281.22-24.2 279.42-24.2L279.42-24.2Q277.12-24.2 275.72-23.15 274.32-22.1 273.57-20.35 272.82-18.6 272.57-16.43 272.32-14.25 272.32-12L272.32-12Q272.32-6.65 273.7-4.33 275.07-2 277.97-2ZM299.07-30.15L299.07-30.15Q297.97-30.15 297.17-30.95 296.37-31.75 296.37-32.85L296.37-32.85Q296.37-34 297.17-34.77 297.97-35.55 299.07-35.55L299.07-35.55Q300.22-35.55 301-34.77 301.77-34 301.77-32.85L301.77-32.85Q301.77-31.75 301-30.95 300.22-30.15 299.07-30.15ZM301.22-23.85L301.27-5.7Q301.27-4.25 301.4-2.85 301.52-1.45 301.92-0.35L301.92-0.35Q301.62-0.1 301.05 0.23 300.47 0.55 299.62 0.55L299.62 0.55Q298.67 0.55 298.02-0.05 297.37-0.65 297.37-1.65L297.37-1.65 297.32-19.8Q297.32-21.25 297.2-22.65 297.07-24.05 296.67-25.15L296.67-25.15Q296.97-25.4 297.55-25.73 298.12-26.05 298.97-26.05L298.97-26.05Q299.97-26.05 300.6-25.48 301.22-24.9 301.22-23.85L301.22-23.85ZM312.67 0.55L312.67 0.55Q311.62 0.55 310.97-0.1 310.32-0.75 310.32-1.85L310.32-1.85 310.32-20.3Q310.27-21.75 309.97-22.33 309.67-22.9 308.92-22.9L308.92-22.9Q308.67-22.9 308.27-22.75 307.87-22.6 307.62-22.1L307.62-22.1Q307.02-22.85 307.02-23.7L307.02-23.7Q307.02-24.7 307.82-25.35 308.62-26 310.02-26L310.02-26Q311.92-26 312.92-24.73 313.92-23.45 313.92-20.85L313.92-20.85 313.92-17.35 313.17-16.45Q313.47-19.45 314.69-21.6 315.92-23.75 317.94-24.9 319.97-26.05 322.52-26.05L322.52-26.05Q326.67-26.05 328.62-23.4 330.57-20.75 330.57-15.65L330.57-15.65 330.57-5.7Q330.62-4.4 330.74-2.93 330.87-1.45 331.22-0.35L331.22-0.35Q330.82 0 330.27 0.28 329.72 0.55 328.92 0.55L328.92 0.55Q327.92 0.55 327.24-0.05 326.57-0.65 326.57-1.65L326.57-1.65 326.57-15.15Q326.52-19.35 325.39-21.53 324.27-23.7 321.37-23.7L321.37-23.7Q320.12-23.7 318.89-23.1 317.67-22.5 316.62-21.13 315.57-19.75 314.92-17.5 314.27-15.25 314.27-12.05L314.27-12.05Q314.27-9.05 314.29-7.1 314.32-5.15 314.37-3.9 314.42-2.65 314.57-1.85 314.72-1.05 314.97-0.35L314.97-0.35Q314.67-0.1 314.09 0.23 313.52 0.55 312.67 0.55ZM348.32 0.65L348.32 0.65Q342.92 0.65 339.77-2.73 336.62-6.1 336.62-12.55L336.62-12.55Q336.62-18.8 339.69-22.43 342.77-26.05 348.52-26.05L348.52-26.05Q351.22-26.05 353.27-25.23 355.32-24.4 356.49-22.8 357.67-21.2 357.67-18.85L357.67-18.85Q357.67-15.1 354.64-13.18 351.62-11.25 346.32-11.25L346.32-11.25Q344.22-11.25 342.32-11.43 340.42-11.6 338.47-12L338.47-12 338.57-13.65Q339.82-13.4 341.49-13.25 343.17-13.1 344.77-13.05L344.77-13.05Q346.52-13.05 348.09-13.35 349.67-13.65 350.87-14.35 352.07-15.05 352.74-16.28 353.42-17.5 353.42-19.35L353.42-19.35Q353.42-21.3 352.67-22.35 351.92-23.4 350.77-23.83 349.62-24.25 348.37-24.25L348.37-24.25Q345.02-24.25 342.94-21.43 340.87-18.6 340.87-13.05L340.87-13.05Q340.87-8.9 341.99-6.53 343.12-4.15 345.02-3.13 346.92-2.1 349.27-2.1L349.27-2.1Q351.97-2.1 354.02-3.23 356.07-4.35 356.77-6.45L356.77-6.45Q357.27-6.25 357.49-5.73 357.72-5.2 357.22-3.95L357.22-3.95Q356.27-1.7 353.87-0.53 351.47 0.65 348.32 0.65ZM373.86 0.65L373.86 0.65Q368.46 0.65 365.31-2.73 362.16-6.1 362.16-12.55L362.16-12.55Q362.16-18.8 365.24-22.43 368.31-26.05 374.06-26.05L374.06-26.05Q376.76-26.05 378.81-25.23 380.86-24.4 382.04-22.8 383.21-21.2 383.21-18.85L383.21-18.85Q383.21-15.1 380.19-13.18 377.16-11.25 371.86-11.25L371.86-11.25Q369.76-11.25 367.86-11.43 365.96-11.6 364.01-12L364.01-12 364.11-13.65Q365.36-13.4 367.04-13.25 368.71-13.1 370.31-13.05L370.31-13.05Q372.06-13.05 373.64-13.35 375.21-13.65 376.41-14.35 377.61-15.05 378.29-16.28 378.96-17.5 378.96-19.35L378.96-19.35Q378.96-21.3 378.21-22.35 377.46-23.4 376.31-23.83 375.16-24.25 373.91-24.25L373.91-24.25Q370.56-24.25 368.49-21.43 366.41-18.6 366.41-13.05L366.41-13.05Q366.41-8.9 367.54-6.53 368.66-4.15 370.56-3.13 372.46-2.1 374.81-2.1L374.81-2.1Q377.51-2.1 379.56-3.23 381.61-4.35 382.31-6.45L382.31-6.45Q382.81-6.25 383.04-5.73 383.26-5.2 382.76-3.95L382.76-3.95Q381.81-1.7 379.41-0.53 377.01 0.65 373.86 0.65ZM392.41 0.45L392.41 0.45Q391.51 0.45 390.81-0.18 390.11-0.8 390.11-1.9L390.11-1.9 390.11-20.3Q390.11-21.75 389.79-22.33 389.46-22.9 388.71-22.9L388.71-22.9Q388.46-22.9 388.06-22.75 387.66-22.6 387.41-22.1L387.41-22.1Q386.81-22.85 386.81-23.7L386.81-23.7Q386.81-24.7 387.61-25.35 388.41-26 389.81-26L389.81-26Q391.71-26 392.71-24.65 393.71-23.3 393.66-20.55L393.66-20.55 393.66-17.25 393.06-17.25Q393.56-21.6 395.46-23.83 397.36-26.05 400.31-26.05L400.31-26.05Q402.86-26.05 404.46-24.7 406.06-23.35 406.06-20.85L406.06-20.85Q406.06-19.2 405.16-18.15 404.26-17.1 403.11-17.05L403.11-17.05Q401.91-17 401.36-17.55L401.36-17.55Q401.96-18.5 402.14-19.23 402.31-19.95 402.31-20.75L402.31-20.75Q402.31-22.35 401.56-23.1 400.81-23.85 399.41-23.85L399.41-23.85Q398.06-23.85 396.84-22.7 395.61-21.55 394.86-18.98 394.11-16.4 394.11-12.05L394.11-12.05Q394.11-9.1 394.11-7.15 394.11-5.2 394.19-3.98 394.26-2.75 394.39-1.95 394.51-1.15 394.76-0.45L394.76-0.45Q394.46-0.15 393.89 0.15 393.31 0.45 392.41 0.45Z" opacity="1" transform="matrix(1,0,0,1,0,0)" fill="#bb86fc" class="slogan-text-1" data-fill-palette-color="secondary" id="text-1"></path></svg></g></svg></g></svg></g></svg></g></svg></g></svg></g></svg></g></svg></g><defs></defs></svg><rect width="395.52" height="247.2" fill="none" stroke="none" visibility="hidden"></rect></g></svg></g></svg>